<?xml version="1.0" encoding="utf-8"?>
<!-- Generator: Adobe Illustrator 25.4.5, SVG Export Plug-In . SVG Version: 6.00 Build 0)  -->
<svg version="1.1" id="Layer_1" xmlns="http://www.w3.org/2000/svg" xmlns:xlink="http://www.w3.org/1999/xlink" x="0px" y="0px"
	 viewBox="0 0 500 500" style="enable-background:new 0 0 500 500;" xml:space="preserve">
<style type="text/css">
	.st0{fill:#FFFFFF;}
	.st1{stroke:#000000;stroke-width:0.9142;stroke-miterlimit:10;}
</style>
<path class="st0" d="M227.5,228"/>
<g>
	<path d="M224.8,223.8V112.8h81.7c9,0,14.6,1.1,16.9,3.4c2.3,2.2,5.1,9.7,8.5,22.3h2.5v-34.1H161.1v2.9c8.5,0,13.6,1.8,15.1,5.5
		c1.6,3.7,2.4,10.1,2.4,19.1v199.8c0,7.7-1.5,12.5-4.5,14.4c-3,1.8-7.3,2.9-13,3.3v2.5H348v-33.9h-2.5c-1.5,9.6-3.5,15.8-6.2,18.6
		c-2.7,2.8-6,4.7-9.8,5.7c-3.9,0.9-12.7,1.4-26.6,1.4h-43.6c-9.4,0-16.4-0.6-21.1-1.9c-4.6-1.3-8-4.5-10.2-9.6
		c-2.1-5.1-3.2-13.4-3.2-25v-76.4"/>
</g>
<path d="M317.4,248.5V226c0-5.6-4.6-10.2-10.2-10.2h-86.6c-2.3,0-4.1,1.8-4.1,4.1l0,0c0,2.4,1.9,4.3,4.3,4.3h68.7c0.1,0,0.2,0,0.3,0
	c9.2,0,17.6,5.3,21.8,13.5C314.4,243.3,317.4,248.9,317.4,248.5z"/>
<path d="M324.7,249.8"/>
<path d="M304,270.1c-1.9-13.9-5.2-28.1-9.9-42.8l-3.8-10.8c-6.2-16.8-13.5-31.1-21.9-42.7c-5-7-10.2-12.2-15.6-15.7V158
	c-2.4-1.5-4.9-2.5-7.4-3c-4-0.9-7.4-1-10.2-0.4l-0.1,130l17.6,3.8V168.7c4.2,3.7,8.1,9.5,11.7,17.5c3.8,8.3,7.1,18,9.9,29.2l2,8.1
	c3.5,15.4,5.8,30.9,6.8,46.5c1,15.6,0.6,27.7-1.3,36.5c-0.9,4.3-2.4,7.4-4.4,9.1c4.2,0.9,8,1.4,11.3,1.4c3.3,0,6.5-1.1,9.4-3.2
	c2.9-2.1,4.9-5.9,6.1-11.4C306,294.7,305.9,284,304,270.1z"/>
<g>
	<path class="st1" d="M136.4,367.8v-0.3h17.9v3.3H154v-0.1c0,0,0-0.1,0-0.1c-0.3-1-0.6-1.6-1.1-1.8c-0.5-0.2-1.2-0.3-2.1-0.3h-9.1
		v12.5h8.5c0.7,0,1.2-0.1,1.5-0.2s0.4-0.4,0.5-0.8h0.3v2.7h-0.3c0-0.7-0.4-1-1.3-1h-9.2V393c0,1.1,0.2,1.7,0.5,2.1s0.9,0.5,1.7,0.5
		v0.3h-7.4v-0.3c0.9,0,1.4-0.2,1.7-0.5c0.2-0.3,0.3-0.8,0.3-1.4v-23.2c0-0.9-0.1-1.6-0.4-2C137.7,368,137.2,367.8,136.4,367.8z"/>
	<path class="st1" d="M158.7,367.8v-0.3h8c2,0,3.5,0,4.4,0.1s1.8,0.4,2.8,0.9c1,0.5,1.7,1.2,2.2,2.1s0.7,1.9,0.7,3.2
		c0,1.4-0.4,2.8-1.3,4.1c-0.9,1.3-2.1,2.4-3.7,3.3l2,3.1c0.4,0.8,1.6,2.4,3.5,5c1.9,2.6,3.3,4.2,4.3,4.7c1,0.6,2,0.9,3,0.9
		c0.9,0,2-0.4,3.3-1.1l0.1,0.4c-1.5,1.3-3.5,1.9-6,1.9c-1.6,0-3-0.5-4.2-1.5s-3.2-3.6-6.1-8c0,0,0-0.1,0-0.1l-2.8-4.4l-2.5,0.1H164
		v10.8c0,0.9,0.1,1.5,0.3,1.9c0.2,0.4,0.8,0.6,1.7,0.6v0.3h-7.3v-0.3c0.9,0,1.5-0.2,1.7-0.6c0.2-0.3,0.3-1,0.3-2.1v-22.5
		c0-0.7-0.1-1.3-0.3-1.8S159.7,367.8,158.7,367.8z M164,368.3v13.3h3c2.3,0,4.1-0.6,5.2-1.7s1.7-2.5,1.7-4.3c0-1.7-0.6-3.4-1.7-4.9
		c-1.1-1.6-3.1-2.3-5.9-2.3H164z"/>
	<path class="st1" d="M207.4,382.8h-8.3l-4.3,10.7c-0.3,0.8-0.4,1.2-0.4,1.4c0,0.4,0.3,0.6,0.9,0.6v0.3h-4.2v-0.3
		c0.6,0,1-0.1,1.4-0.4c0.4-0.3,0.8-1,1.3-2.1l10.2-25.9h0.5l10.1,25c0,0.1,0.3,0.7,0.8,1.8c0.5,1.1,1.3,1.6,2.4,1.6v0.3h-6.6v-0.3
		c0.6,0,0.9-0.2,0.9-0.7c0-0.3-0.1-0.8-0.4-1.5c-0.1-0.1-0.1-0.1-0.1-0.2c0-0.1,0-0.2-0.1-0.2L207.4,382.8z M199.4,382h7.6l-3.8-9.6
		L199.4,382z"/>
	<path class="st1" d="M245.3,367.5h5.5v0.3c-0.8,0-1.4,0.2-1.7,0.5s-0.5,1-0.5,2.1v25.7l-22.6-24V393c0,0.7,0.1,1.2,0.2,1.5
		c0.1,0.3,0.2,0.5,0.4,0.7s0.7,0.2,1.4,0.3v0.3h-5.4v-0.3c1,0,1.6-0.2,1.8-0.5s0.4-1.2,0.4-2.5v-19.1c0-1.7-0.2-3-0.7-4.1
		s-1.5-1.6-3.2-1.5v-0.3h5.3l21.2,22.6v-20c0-1.1-0.2-1.7-0.6-2c-0.4-0.2-0.9-0.4-1.5-0.4V367.5z"/>
	<path class="st1" d="M280.6,368.9l1.1,3h-0.3c-2.7-2.7-6-4.1-9.7-4.1c-3.9,0-7,1.1-9.3,3.4c-2.4,2.3-3.6,5.1-3.6,8.3
		c0,2,0.5,4.3,1.6,6.9c1.1,2.6,2.7,4.8,5,6.4c2.3,1.7,5,2.5,8.3,2.5c2.1,0,4.2-0.3,6.2-1s3.6-1.6,4.6-2.8l0.2,0.1l-2,3
		c-3.2,0.7-5.3,1.1-6.2,1.2c-1,0.1-2.2,0.2-3.8,0.2c-5.9,0-10.2-1.4-12.7-4.1c-2.6-2.7-3.8-6-3.8-9.9c0-2.6,0.7-5.1,2-7.5
		c1.3-2.4,3.2-4.3,5.7-5.6c2.5-1.4,5.3-2.1,8.5-2.1c1.6,0,3,0.1,4.1,0.4s2.1,0.6,2.9,0.9L280.6,368.9
		C280.5,368.9,280.6,368.9,280.6,368.9z"/>
	<path class="st1" d="M296.5,367.5v0.3c-0.4,0-0.8,0-1.2,0.2c-0.5,0.2-0.7,0.4-0.8,0.7s-0.1,1-0.1,2.1v21.7c0,1.2,0,1.9,0.1,2.2
		c0.1,0.3,0.3,0.5,0.6,0.7s0.8,0.3,1.5,0.3v0.3h-7.5v-0.3c0.9,0,1.5-0.2,1.8-0.5c0.2-0.4,0.3-1.2,0.3-2.5V371c0-1.3-0.1-2.2-0.4-2.6
		c-0.3-0.4-0.8-0.6-1.7-0.5v-0.3H296.5z"/>
	<path class="st1" d="M315.5,367.9l1.3,3.5l-0.2,0c0,0-0.4-0.4-1.1-1.1c-0.7-0.7-1.5-1.3-2.4-1.7c-0.9-0.4-1.9-0.6-3.1-0.6
		c-1.9,0-3.5,0.6-4.6,1.7c-1.1,1.1-1.7,2.4-1.7,4c0,1,0.3,1.9,0.8,2.7c0.5,0.8,1.6,1.5,3.3,2.2c2.9,1,4.9,1.7,6,2.2
		c1.1,0.5,2.1,1.3,3.1,2.5c1,1.2,1.5,2.7,1.5,4.5c0,0.8-0.1,1.5-0.3,2.2c-0.2,0.7-0.5,1.4-0.9,2c-0.4,0.6-0.9,1.2-1.4,1.8
		s-1.1,0.9-1.7,1.2c-0.6,0.3-1.5,0.5-2.7,0.6s-2.1,0.2-2.5,0.2h-7.5v-8.2h0.3c0,2.7,0.7,4.6,1.9,5.7c1.3,1.1,3.2,1.6,5.9,1.6
		c2.4,0,4.2-0.6,5.5-1.7c1.2-1.1,1.9-2.5,1.9-4.1c0-1-0.2-1.8-0.7-2.5c-0.4-0.7-1-1.3-1.8-1.8c-0.8-0.5-2.3-1.2-4.4-1.9
		c-2.2-0.8-3.7-1.4-4.6-2c-0.9-0.6-1.6-1.4-2.2-2.6s-0.9-2.3-0.9-3.5c0-2.2,0.8-4,2.3-5.5c1.5-1.5,3.5-2.2,5.9-2.2
		c0.9,0,2,0.1,3.1,0.3s1.7,0.4,1.8,0.4C315.4,367.9,315.4,367.9,315.5,367.9z"/>
	<path class="st1" d="M347.7,368.9l1.1,3h-0.3c-2.7-2.7-6-4.1-9.7-4.1c-3.8,0-7,1.1-9.3,3.4c-2.4,2.3-3.6,5.1-3.6,8.3
		c0,2,0.5,4.3,1.6,6.9s2.7,4.8,5,6.4c2.3,1.7,5,2.5,8.3,2.5c2.1,0,4.2-0.3,6.2-1s3.6-1.6,4.6-2.8l0.2,0.1l-2,3
		c-3.2,0.7-5.3,1.1-6.2,1.2c-1,0.1-2.2,0.2-3.8,0.2c-5.9,0-10.2-1.4-12.7-4.1s-3.8-6-3.8-9.9c0-2.6,0.7-5.1,2-7.5s3.2-4.3,5.7-5.6
		c2.5-1.4,5.3-2.1,8.5-2.1c1.6,0,3,0.1,4.1,0.4s2.1,0.6,2.9,0.9L347.7,368.9C347.7,368.9,347.7,368.9,347.7,368.9z"/>
	<path class="st1" d="M371.4,367.1c4,0,7.2,1.2,9.7,3.6c2.5,2.4,3.8,5.4,3.8,9c0,4.6-1.5,8.6-4.4,11.7c-2.9,3.2-6.8,4.8-11.6,4.8
		c-3.9,0-7.1-1.3-9.6-3.8c-2.5-2.6-3.7-5.6-3.7-9.2c0-2.4,0.6-4.9,1.8-7.4c1.2-2.5,3-4.6,5.4-6.2C365.2,367.9,368,367.1,371.4,367.1
		z M371.2,394.7c1.9,0,3.9-0.5,5.8-1.6c1.9-1,3.4-2.5,4.5-4.3s1.6-3.7,1.6-5.6c0-2.7-0.7-5.2-2.2-7.5c-1.5-2.2-3.4-4-5.7-5.3
		c-2.3-1.3-4.5-1.9-6.5-1.9c-2.8,0-5.3,1.1-7.6,3.2s-3.4,4.7-3.4,7.9c0,4,1.4,7.5,4.2,10.6C364.6,393.2,367.8,394.7,371.2,394.7z"/>
</g>
</svg>
