<?xml version="1.0" encoding="utf-8"?>
<!-- Generator: Adobe Illustrator 25.4.5, SVG Export Plug-In . SVG Version: 6.00 Build 0)  -->
<svg version="1.1" id="Layer_1" xmlns="http://www.w3.org/2000/svg" xmlns:xlink="http://www.w3.org/1999/xlink" x="0px" y="0px"
	 viewBox="0 0 500 500" style="enable-background:new 0 0 500 500;" xml:space="preserve">
<style type="text/css">
	.st0{fill:#FFFFFF;}
</style>
<path class="st0" d="M207,243"/>
<g>
	<path d="M203.5,237.6V92.4h106.8c11.7,0,19.1,1.5,22.1,4.4c3,2.9,6.7,12.7,11.1,29.2h3.3V81.4H120.1v3.7c11.1,0,17.7,2.4,19.8,7.2
		c2,4.8,3.1,13.2,3.1,25v261.3c0,10.1-1.9,16.4-5.8,18.8c-3.9,2.4-9.6,3.8-17,4.3v3.3h244.4v-44.4h-3.3c-1.9,12.5-4.6,20.6-8.1,24.3
		c-3.5,3.7-7.8,6.2-12.8,7.4c-5,1.2-16.6,1.9-34.8,1.9h-57c-12.3,0-21.5-0.8-27.5-2.5c-6.1-1.7-10.5-5.9-13.3-12.5
		c-2.8-6.7-4.2-17.5-4.2-32.6v-100"/>
</g>
<path d="M324.5,269.9v-29.4c0-7.3-6-13.3-13.3-13.3H197.8c-3,0-5.4,2.4-5.4,5.4v0c0,3.1,2.5,5.6,5.6,5.6H288c0.1,0,0.2,0,0.4,0
	c12,0,23,6.9,28.5,17.6C320.6,263,324.5,270.4,324.5,269.9z"/>
<path d="M334,271.6"/>
<path d="M307,298c-2.4-18.2-6.8-36.8-13-55.9l-4.9-14.2c-8.1-22-17.6-40.6-28.7-55.9c-6.6-9.1-13.4-15.9-20.5-20.5v-0.1
	c-3.2-1.9-6.4-3.3-9.7-4c-5.2-1.1-9.6-1.3-13.3-0.5l-0.1,170.1L240,322V165.4c5.5,4.8,10.6,12.5,15.3,22.9
	c4.9,10.8,9.3,23.6,13,38.2l2.6,10.6c4.6,20.2,7.5,40.4,8.9,60.8c1.3,20.3,0.8,36.2-1.7,47.7c-1.2,5.7-3.1,9.6-5.8,11.9
	c5.5,1.2,10.5,1.8,14.8,1.8c4.4,0,8.5-1.4,12.2-4.2c3.8-2.8,6.5-7.7,8-14.9C309.6,330.3,309.4,316.2,307,298z"/>
</svg>
